<?xml version="1.0" standalone="no"?>
<!DOCTYPE svg PUBLIC "-//W3C//DTD SVG 20010904//EN"
 "http://www.w3.org/TR/2001/REC-SVG-20010904/DTD/svg10.dtd">
<svg version="1.0" xmlns="http://www.w3.org/2000/svg"
 width="223.000000pt" height="57.000000pt" viewBox="0 0 223.000000 57.000000"
 preserveAspectRatio="xMidYMid meet">
<metadata>
Created by potrace 1.15, written by Peter Selinger 2001-2017
</metadata>
<g transform="translate(0.000000,57.000000) scale(0.100000,-0.100000)"
fill="#000000" stroke="none">
<path d="M550 508 c-52 -34 -122 -89 -155 -121 -50 -50 -86 -72 -222 -139
-153 -75 -192 -98 -161 -98 7 0 83 35 168 78 153 76 156 77 152 50 -3 -19 2
-29 18 -38 23 -12 95 -9 135 5 17 6 17 4 -4 -14 -13 -12 -21 -24 -18 -27 9 -9
47 20 47 36 0 20 50 52 129 84 36 14 66 26 67 26 2 0 -19 -23 -47 -52 -27 -28
-49 -55 -49 -60 0 -5 -9 -4 -21 2 -28 15 -35 5 -19 -25 8 -15 22 -25 36 -25
13 0 25 -3 28 -8 2 -4 -45 -16 -106 -26 -128 -21 -183 -38 -215 -68 -29 -27
-29 -39 1 -67 23 -22 31 -23 123 -19 109 5 213 36 376 111 l87 40 60 -26 c33
-14 60 -23 60 -20 0 3 -11 19 -25 35 -29 34 -29 61 -1 66 10 2 16 0 12 -6 -11
-18 25 -22 50 -6 13 9 24 19 24 23 0 3 16 6 35 6 31 0 33 -2 18 -12 -25 -19
-11 -24 27 -10 26 9 34 9 37 0 8 -22 36 -14 69 18 25 24 37 29 55 24 l23 -8
-27 -14 c-15 -7 -27 -18 -27 -22 0 -13 112 -24 159 -16 22 3 48 2 58 -3 12 -7
44 -6 94 2 67 11 78 10 86 -3 8 -13 30 -16 109 -16 180 1 434 17 434 27 0 6
-97 8 -267 4 -148 -3 -260 -3 -250 0 9 3 17 10 17 15 0 12 -44 12 -110 -1 -40
-8 -56 -7 -61 1 -5 9 -29 9 -98 -1 -50 -7 -94 -10 -98 -6 -3 3 1 6 11 6 9 0
15 4 12 9 -3 5 3 11 14 14 37 10 20 25 -25 25 -47 -1 -77 14 -56 26 16 10 13
42 -4 60 -34 33 -68 -17 -41 -59 15 -23 15 -25 -9 -41 -17 -11 -35 -14 -57
-10 -57 12 -141 14 -168 5 -21 -7 -20 -5 10 19 81 63 164 150 182 190 18 40
18 45 4 68 -60 91 -270 -88 -292 -249 -7 -51 -8 -51 -109 -62 l-60 -6 28 18
c25 16 36 33 21 33 -12 0 -64 -34 -64 -42 0 -4 -10 -8 -22 -8 -17 0 -14 5 18
29 22 15 51 42 65 58 14 17 39 38 55 46 49 25 136 124 132 150 -7 51 -95 25
-212 -63 -29 -22 -57 -40 -62 -40 -5 0 -44 -14 -87 -31 -75 -31 -78 -31 -112
-15 -26 13 -48 15 -81 10 -85 -12 -111 -63 -42 -83 l33 -9 -43 -1 c-79 -2 -67
57 21 108 94 54 268 182 264 194 -9 27 -47 14 -137 -45z m668 -23 c5 -50 -78
-140 -217 -237 l-44 -31 7 44 c15 93 87 197 165 240 53 28 85 22 89 -16z
m-228 -1 c0 -17 -44 -75 -74 -98 -42 -31 -46 -32 -39 -6 3 11 2 20 -3 20 -16
0 -44 -34 -44 -54 0 -21 -60 -86 -110 -120 -13 -9 -38 -16 -55 -16 l-30 1 30
25 c93 80 126 116 120 133 -4 13 7 26 39 49 71 51 166 89 166 66z m-146 -323
c7 -11 -103 -61 -224 -102 -119 -40 -265 -52 -294 -24 -20 20 -10 37 35 61 23
12 229 52 344 67 59 8 134 7 139 -2z"/>
</g>
</svg>
